<?xml version="1.0" encoding="utf-8"?>
<!-- Generator: Adobe Illustrator 27.3.1, SVG Export Plug-In . SVG Version: 6.00 Build 0)  -->
<svg version="1.1" id="Layer_1" xmlns="http://www.w3.org/2000/svg" xmlns:xlink="http://www.w3.org/1999/xlink" x="0px" y="0px"
	 viewBox="0 0 192 177" style="enable-background:new 0 0 192 177;" xml:space="preserve">
<style type="text/css">
	.st0{fill:url(#SVGID_1_);}
	.st1{fill:#FFFFFF;}
	.st2{fill:#052AE7;}
	.st3{fill:url(#SVGID_00000103978218641416126280000007062448630820195720_);}
	.st4{fill:#FF671F;}
</style>
<g>
	<linearGradient id="SVGID_1_" gradientUnits="userSpaceOnUse" x1="96" y1="171.8703" x2="96" y2="159.1835">
		<stop  offset="0" style="stop-color:#BCBEC0"/>
		<stop  offset="1" style="stop-color:#FFFFFF"/>
	</linearGradient>
	<path class="st0" d="M4.14,144.74h12.25v4.16h-4.04v18H8.07v-18H4.14V144.74z M20.43,143.76c0.72,0,1.34,0.26,1.86,0.78
		c0.52,0.52,0.77,1.15,0.77,1.9c0,0.73-0.26,1.36-0.77,1.88s-1.12,0.78-1.83,0.78c-0.73,0-1.35-0.26-1.87-0.79
		c-0.52-0.53-0.77-1.17-0.77-1.92c0-0.72,0.26-1.34,0.77-1.85C19.1,144.02,19.71,143.76,20.43,143.76z M18.38,150.51h4.11v16.39
		h-4.11V150.51z M25.26,150.51h3.52v2.06c0.38-0.81,0.89-1.43,1.52-1.85c0.63-0.42,1.33-0.63,2.08-0.63c0.53,0,1.09,0.14,1.67,0.42
		l-1.28,3.54c-0.48-0.24-0.88-0.36-1.19-0.36c-0.63,0-1.17,0.39-1.6,1.17c-0.44,0.78-0.66,2.32-0.66,4.61l0.02,0.8v6.63h-4.08
		V150.51z M48.18,150.51h4.11v16.39h-4.11v-1.73c-0.8,0.76-1.61,1.31-2.41,1.65c-0.81,0.34-1.68,0.5-2.63,0.5
		c-2.12,0-3.95-0.82-5.49-2.46c-1.54-1.64-2.32-3.68-2.32-6.12c0-2.53,0.75-4.6,2.24-6.22c1.49-1.62,3.31-2.42,5.45-2.42
		c0.98,0,1.91,0.19,2.77,0.56c0.86,0.37,1.66,0.93,2.39,1.67V150.51z M43.86,153.88c-1.27,0-2.33,0.45-3.17,1.35
		c-0.84,0.9-1.26,2.05-1.26,3.46c0,1.42,0.43,2.58,1.28,3.49c0.86,0.91,1.91,1.37,3.16,1.37c1.29,0,2.36-0.45,3.21-1.35
		c0.85-0.9,1.28-2.08,1.28-3.53c0-1.43-0.43-2.58-1.28-3.46C46.24,154.33,45.16,153.88,43.86,153.88z M56.45,150.51h4.11v1.68
		c0.93-0.79,1.78-1.33,2.53-1.64c0.76-0.31,1.53-0.46,2.32-0.46c1.62,0,3,0.57,4.14,1.7c0.95,0.96,1.43,2.39,1.43,4.28v10.83h-4.07
		v-7.18c0-1.96-0.09-3.25-0.26-3.9c-0.17-0.64-0.48-1.13-0.92-1.47c-0.44-0.34-0.97-0.5-1.62-0.5c-0.83,0-1.55,0.28-2.14,0.83
		c-0.6,0.56-1.01,1.33-1.24,2.31c-0.12,0.51-0.18,1.62-0.18,3.32v6.57h-4.11V150.51z M87.08,150.51h4.1v14.04
		c0,2.77-0.56,4.81-1.67,6.12c-1.5,1.77-3.75,2.65-6.76,2.65c-1.61,0-2.96-0.2-4.05-0.6c-1.09-0.4-2.02-0.99-2.77-1.77
		c-0.75-0.78-1.31-1.72-1.67-2.84h4.53c0.4,0.46,0.92,0.81,1.55,1.05c0.63,0.24,1.38,0.35,2.24,0.35c1.1,0,1.99-0.17,2.67-0.51
		c0.67-0.34,1.15-0.78,1.42-1.33c0.28-0.54,0.41-1.48,0.41-2.8c-0.72,0.72-1.48,1.24-2.27,1.56s-1.69,0.47-2.7,0.47
		c-2.2,0-4.06-0.79-5.57-2.38c-1.52-1.59-2.27-3.59-2.27-6.02c0-2.6,0.8-4.69,2.41-6.27c1.46-1.43,3.19-2.14,5.21-2.14
		c0.94,0,1.83,0.17,2.67,0.52c0.84,0.35,1.68,0.92,2.52,1.71V150.51z M82.81,153.93c-1.3,0-2.37,0.43-3.21,1.3
		c-0.84,0.87-1.27,1.96-1.27,3.28c0,1.37,0.43,2.49,1.3,3.36c0.86,0.87,1.95,1.31,3.25,1.31c1.27,0,2.33-0.43,3.16-1.28
		c0.83-0.85,1.24-1.97,1.24-3.36c0-1.37-0.42-2.48-1.25-3.33C85.2,154.36,84.13,153.93,82.81,153.93z M107.43,150.51h4.11v16.39
		h-4.11v-1.73c-0.8,0.76-1.61,1.31-2.41,1.65c-0.81,0.34-1.68,0.5-2.63,0.5c-2.12,0-3.95-0.82-5.49-2.46
		c-1.54-1.64-2.32-3.68-2.32-6.12c0-2.53,0.75-4.6,2.24-6.22c1.49-1.62,3.31-2.42,5.45-2.42c0.98,0,1.91,0.19,2.77,0.56
		c0.86,0.37,1.66,0.93,2.39,1.67V150.51z M103.1,153.88c-1.27,0-2.33,0.45-3.17,1.35c-0.84,0.9-1.26,2.05-1.26,3.46
		c0,1.42,0.43,2.58,1.28,3.49c0.86,0.91,1.91,1.37,3.16,1.37c1.29,0,2.36-0.45,3.21-1.35c0.85-0.9,1.28-2.08,1.28-3.53
		c0-1.43-0.43-2.58-1.28-3.46C105.48,154.33,104.4,153.88,103.1,153.88z M145.49,148.85l-1.75,1.34c-0.96-1.26-2.12-2.21-3.47-2.85
		c-1.35-0.65-2.83-0.97-4.45-0.97c-1.77,0-3.4,0.42-4.91,1.27c-1.51,0.85-2.67,1.99-3.5,3.42c-0.83,1.43-1.24,3.04-1.24,4.83
		c0,2.7,0.93,4.96,2.78,6.76c1.85,1.81,4.19,2.71,7.01,2.71c3.1,0,5.7-1.21,7.79-3.65l1.75,1.33c-1.1,1.41-2.48,2.49-4.13,3.26
		c-1.65,0.77-3.5,1.15-5.54,1.15c-3.88,0-6.93-1.29-9.17-3.87c-1.88-2.18-2.82-4.81-2.82-7.89c0-3.24,1.14-5.97,3.41-8.19
		c2.27-2.21,5.12-3.32,8.55-3.32c2.07,0,3.94,0.41,5.6,1.23C143.06,146.23,144.42,147.38,145.49,148.85z M165.91,150.51v16.39h-2.08
		v-2.82c-0.88,1.07-1.88,1.88-2.97,2.43c-1.1,0.54-2.3,0.81-3.61,0.81c-2.32,0-4.3-0.84-5.94-2.52c-1.64-1.68-2.46-3.73-2.46-6.14
		c0-2.36,0.83-4.38,2.49-6.06c1.66-1.68,3.65-2.52,5.98-2.52c1.35,0,2.56,0.29,3.65,0.86c1.09,0.57,2.05,1.43,2.87,2.58v-3.01
		H165.91z M157.48,152.12c-1.17,0-2.26,0.29-3.25,0.87c-0.99,0.58-1.78,1.39-2.37,2.43c-0.59,1.04-0.88,2.15-0.88,3.31
		c0,1.15,0.3,2.26,0.89,3.31s1.39,1.87,2.38,2.46c1,0.59,2.07,0.88,3.21,0.88c1.15,0,2.25-0.29,3.28-0.87
		c1.03-0.58,1.83-1.37,2.38-2.36c0.56-0.99,0.83-2.11,0.83-3.36c0-1.9-0.62-3.48-1.87-4.75
		C160.85,152.76,159.31,152.12,157.48,152.12z M170.79,166.9v-22.71h2.11v9.14c0.88-1.08,1.87-1.9,2.96-2.43
		c1.09-0.54,2.29-0.81,3.6-0.81c2.32,0,4.3,0.84,5.94,2.52c1.64,1.68,2.46,3.72,2.46,6.12c0,2.37-0.83,4.39-2.48,6.07
		c-1.65,1.68-3.65,2.52-5.97,2.52c-1.33,0-2.54-0.29-3.63-0.86c-1.08-0.57-2.04-1.43-2.87-2.58v3.01H170.79z M179.23,165.29
		c1.17,0,2.25-0.29,3.25-0.87c0.99-0.58,1.78-1.39,2.37-2.43c0.59-1.04,0.88-2.15,0.88-3.31s-0.3-2.27-0.89-3.33
		c-0.59-1.05-1.38-1.87-2.38-2.46c-1-0.59-2.06-0.88-3.19-0.88c-1.15,0-2.25,0.29-3.28,0.88c-1.04,0.59-1.83,1.38-2.39,2.37
		c-0.56,0.99-0.83,2.11-0.83,3.36c0,1.9,0.62,3.48,1.87,4.76C175.87,164.65,177.4,165.29,179.23,165.29z"/>
	<path class="st1" d="M19.28,3.69c0,0,13.43,14.43,39.38,12.67s66.23-14.75,95.32,16.84c0,0,17.55,15.56,14.94,42.71
		c-1.61,16.78-11.58,43.69-48.05,47.72c0,0-12.42,1.34-41.39-6.82c0,0-26.78-6.75-54.37,6.18c0,0-2.42,0.03-0.37-3.58
		c2.05-3.61,5.67-6.55,5.67-6.55s-12.23-3.74-12.57-7.59c0,0-0.78-1.76,8.17-8.02c8.95-6.25,16.89-10.74,16.89-10.74
		s-14.32,0.64-17.9-4.49c0,0-2.46-3.21,2.01-6.49s37.14-21.24,37.14-21.24S36.74,61.49,27.9,55.8c0,0-4.36-2.08-0.56-9.78
		c0,0,4.48-6.73,11.19-9.22c0,0-1.57-4.81-8.73-11.38C29.8,25.41,17.05,14.91,19.28,3.69z"/>
	<path class="st2" d="M96.92,116.83c0,0-39.31-10.96-69.14,1.44l7.16-5.88c0,0-11.97-4.17-15.33-7.05c0,0,7.83-6.65,18.24-12.35
		c0,0,10.63-7.62,21.7-8.9s11.86-1.28,11.86-1.28S73.73,105.45,96.92,116.83z"/>
	
		<linearGradient id="SVGID_00000047030240512889618710000013115198879282114469_" gradientUnits="userSpaceOnUse" x1="27.9045" y1="70.2793" x2="73.4307" y2="70.2793">
		<stop  offset="0" style="stop-color:#B0B9B5"/>
		<stop  offset="0.3007" style="stop-color:#C3CAC7"/>
		<stop  offset="0.9097" style="stop-color:#F5F7F6"/>
		<stop  offset="1" style="stop-color:#FDFEFD"/>
	</linearGradient>
	<path style="fill:url(#SVGID_00000047030240512889618710000013115198879282114469_);" d="M48.74,86.95c0,0-4.74-2.9-12.23-3.5
		c-7.5-0.6-9.4-3.81-8.33-5.09c1.06-1.28,39.44-24.33,39.44-24.33l5.82-0.43c0,0-5.22,10.37-1.49,29.07
		C71.94,82.68,56.28,83.37,48.74,86.95z"/>
	<path class="st4" d="M159.8,57c0,0-8.8-40.91-55.04-41.98c0,0-21.26,0.69-39.83,4.06s-44.3-5.13-45.87-12.99
		c0,0,3.36,12.27,10.52,18.2s11.64,9.54,11.75,13.47c0,0-3.69,4.89-9.85,8.42s-3.02,8.66,2.13,8.66s39.83-1.23,39.83-1.23
		s7.76-25.55,36.4-30.25C109.83,23.35,143.54,18.41,159.8,57z"/>
</g>
</svg>
